<svg class="lds-flat-spinner" width="200px"  height="200px"  xmlns="http://www.w3.org/2000/svg" xmlns:xlink="http://www.w3.org/1999/xlink" viewBox="0 0 100 100" preserveAspectRatio="xMidYMid" style="background: none; shape-rendering: auto;"><circle cx="50" cy="50" r="45" fill="#5c87b2" class=""></circle><defs class=""><mask id="lds-flat-spinner-mask-5a57f4a1a9e67" class=""><circle cx="50" cy="50" r="45" fill="gray" class=""></circle></mask></defs><path d="M25.251262658470836 74.74873734152916 A35 35 0 0 1 74.74873734152916 25.25126265847084 L174.74873734152916 125.25126265847084 L125.25126265847084 174.74873734152916 Z" fill="rgb(74, 109, 144)" mask="url(#lds-flat-spinner-mask-5a57f4a1a9e67)" class=""></path><circle cx="50" cy="50" r="35" fill="#ffffff" class=""></circle><g transform="rotate(0 50 50)" class="">
  <rect x="47" y="24" rx="16.45" ry="8.4" width="6" height="12" fill="#f94b01" class="">
    <animate attributeName="opacity" values="1;0" times="0;1" dur="1s" begin="-0.9166666666666666s" repeatCount="indefinite" class=""></animate>
  </rect>
</g><g transform="rotate(30 50 50)" class="">
  <rect x="47" y="24" rx="16.45" ry="8.4" width="6" height="12" fill="#f94b01" class="">
    <animate attributeName="opacity" values="1;0" times="0;1" dur="1s" begin="-0.8333333333333334s" repeatCount="indefinite" class=""></animate>
  </rect>
</g><g transform="rotate(60 50 50)" class="">
  <rect x="47" y="24" rx="16.45" ry="8.4" width="6" height="12" fill="#f94b01" class="">
    <animate attributeName="opacity" values="1;0" times="0;1" dur="1s" begin="-0.75s" repeatCount="indefinite" class=""></animate>
  </rect>
</g><g transform="rotate(90 50 50)" class="">
  <rect x="47" y="24" rx="16.45" ry="8.4" width="6" height="12" fill="#f94b01" class="">
    <animate attributeName="opacity" values="1;0" times="0;1" dur="1s" begin="-0.6666666666666666s" repeatCount="indefinite" class=""></animate>
  </rect>
</g><g transform="rotate(120 50 50)" class="">
  <rect x="47" y="24" rx="16.45" ry="8.4" width="6" height="12" fill="#f94b01" class="">
    <animate attributeName="opacity" values="1;0" times="0;1" dur="1s" begin="-0.5833333333333334s" repeatCount="indefinite" class=""></animate>
  </rect>
</g><g transform="rotate(150 50 50)" class="">
  <rect x="47" y="24" rx="16.45" ry="8.4" width="6" height="12" fill="#f94b01" class="">
    <animate attributeName="opacity" values="1;0" times="0;1" dur="1s" begin="-0.5s" repeatCount="indefinite" class=""></animate>
  </rect>
</g><g transform="rotate(180 50 50)" class="">
  <rect x="47" y="24" rx="16.45" ry="8.4" width="6" height="12" fill="#f94b01" class="">
    <animate attributeName="opacity" values="1;0" times="0;1" dur="1s" begin="-0.4166666666666667s" repeatCount="indefinite" class=""></animate>
  </rect>
</g><g transform="rotate(210 50 50)" class="">
  <rect x="47" y="24" rx="16.45" ry="8.4" width="6" height="12" fill="#f94b01" class="">
    <animate attributeName="opacity" values="1;0" times="0;1" dur="1s" begin="-0.3333333333333333s" repeatCount="indefinite" class=""></animate>
  </rect>
</g><g transform="rotate(240 50 50)" class="">
  <rect x="47" y="24" rx="16.45" ry="8.4" width="6" height="12" fill="#f94b01" class="">
    <animate attributeName="opacity" values="1;0" times="0;1" dur="1s" begin="-0.25s" repeatCount="indefinite" class=""></animate>
  </rect>
</g><g transform="rotate(270 50 50)" class="">
  <rect x="47" y="24" rx="16.45" ry="8.4" width="6" height="12" fill="#f94b01" class="">
    <animate attributeName="opacity" values="1;0" times="0;1" dur="1s" begin="-0.16666666666666666s" repeatCount="indefinite" class=""></animate>
  </rect>
</g><g transform="rotate(300 50 50)" class="">
  <rect x="47" y="24" rx="16.45" ry="8.4" width="6" height="12" fill="#f94b01" class="">
    <animate attributeName="opacity" values="1;0" times="0;1" dur="1s" begin="-0.08333333333333333s" repeatCount="indefinite" class=""></animate>
  </rect>
</g><g transform="rotate(330 50 50)" class="">
  <rect x="47" y="24" rx="16.45" ry="8.4" width="6" height="12" fill="#f94b01" class="">
    <animate attributeName="opacity" values="1;0" times="0;1" dur="1s" begin="0s" repeatCount="indefinite" class=""></animate>
  </rect>
</g></svg>